<mxfile host="Electron" modified="2024-01-14T07:22:31.043Z" agent="Mozilla/5.0 (Windows NT 10.0; Win64; x64) AppleWebKit/537.36 (KHTML, like Gecko) draw.io/22.1.18 Chrome/120.0.6099.199 Electron/28.1.2 Safari/537.36" etag="dAWpghJtOLAxJ3mJlTT1" version="22.1.18" type="device">
  <diagram name="第 1 页" id="1eiJyknlvP28ItFqs-xc">
    <mxGraphModel dx="1351" dy="1595" grid="1" gridSize="10" guides="1" tooltips="1" connect="1" arrows="1" fold="1" page="1" pageScale="1" pageWidth="827" pageHeight="1169" math="0" shadow="0">
      <root>
        <mxCell id="0" />
        <mxCell id="1" parent="0" />
        <mxCell id="ezkdBNjt0_af7pjw_o3w-1" value="Study hive design" style="text;html=1;align=center;verticalAlign=middle;resizable=0;points=[];autosize=1;strokeColor=none;fillColor=none;fontSize=30;" parent="1" vertex="1">
          <mxGeometry x="270" y="-1150" width="260" height="50" as="geometry" />
        </mxCell>
        <mxCell id="ezkdBNjt0_af7pjw_o3w-2" value="&lt;font style=&quot;font-size: 20px;&quot;&gt;Authentication&lt;/font&gt;" style="text;html=1;align=center;verticalAlign=middle;resizable=0;points=[];autosize=1;strokeColor=none;fillColor=none;" parent="1" vertex="1">
          <mxGeometry x="60" y="-1080" width="150" height="40" as="geometry" />
        </mxCell>
        <mxCell id="ezkdBNjt0_af7pjw_o3w-3" value="Login" style="text;html=1;align=center;verticalAlign=middle;resizable=0;points=[];autosize=1;strokeColor=none;fillColor=none;" parent="1" vertex="1">
          <mxGeometry x="-110" y="-1042" width="50" height="30" as="geometry" />
        </mxCell>
        <mxCell id="ezkdBNjt0_af7pjw_o3w-8" value="" style="whiteSpace=wrap;html=1;" parent="1" vertex="1">
          <mxGeometry x="-190" y="-990" width="210" height="370" as="geometry" />
        </mxCell>
        <mxCell id="ezkdBNjt0_af7pjw_o3w-11" style="edgeStyle=orthogonalEdgeStyle;rounded=0;orthogonalLoop=1;jettySize=auto;html=1;entryX=1;entryY=0.5;entryDx=0;entryDy=0;" parent="1" source="ezkdBNjt0_af7pjw_o3w-4" target="ezkdBNjt0_af7pjw_o3w-5" edge="1">
          <mxGeometry relative="1" as="geometry" />
        </mxCell>
        <mxCell id="ezkdBNjt0_af7pjw_o3w-4" value="Frontend" style="rounded=0;whiteSpace=wrap;html=1;" parent="1" vertex="1">
          <mxGeometry x="-145" y="-940" width="120" height="60" as="geometry" />
        </mxCell>
        <mxCell id="ezkdBNjt0_af7pjw_o3w-15" style="edgeStyle=orthogonalEdgeStyle;rounded=0;orthogonalLoop=1;jettySize=auto;html=1;entryX=0;entryY=0.5;entryDx=0;entryDy=0;" parent="1" source="ezkdBNjt0_af7pjw_o3w-5" target="ezkdBNjt0_af7pjw_o3w-13" edge="1">
          <mxGeometry relative="1" as="geometry" />
        </mxCell>
        <mxCell id="ezkdBNjt0_af7pjw_o3w-5" value="User" style="rounded=0;whiteSpace=wrap;html=1;" parent="1" vertex="1">
          <mxGeometry x="-440" y="-940" width="120" height="60" as="geometry" />
        </mxCell>
        <mxCell id="ezkdBNjt0_af7pjw_o3w-9" value="Server" style="text;html=1;align=center;verticalAlign=middle;resizable=0;points=[];autosize=1;strokeColor=none;fillColor=none;" parent="1" vertex="1">
          <mxGeometry x="-200" y="-1012" width="60" height="30" as="geometry" />
        </mxCell>
        <mxCell id="ezkdBNjt0_af7pjw_o3w-12" value="1. Sent to user browser" style="text;html=1;align=center;verticalAlign=middle;resizable=0;points=[];autosize=1;strokeColor=none;fillColor=none;" parent="1" vertex="1">
          <mxGeometry x="-315" y="-932" width="150" height="30" as="geometry" />
        </mxCell>
        <mxCell id="ezkdBNjt0_af7pjw_o3w-18" style="edgeStyle=orthogonalEdgeStyle;rounded=0;orthogonalLoop=1;jettySize=auto;html=1;" parent="1" source="ezkdBNjt0_af7pjw_o3w-13" target="ezkdBNjt0_af7pjw_o3w-17" edge="1">
          <mxGeometry relative="1" as="geometry" />
        </mxCell>
        <mxCell id="ezkdBNjt0_af7pjw_o3w-22" style="edgeStyle=orthogonalEdgeStyle;rounded=0;orthogonalLoop=1;jettySize=auto;html=1;entryX=0.5;entryY=1;entryDx=0;entryDy=0;" parent="1" source="ezkdBNjt0_af7pjw_o3w-13" target="ezkdBNjt0_af7pjw_o3w-5" edge="1">
          <mxGeometry relative="1" as="geometry" />
        </mxCell>
        <mxCell id="ezkdBNjt0_af7pjw_o3w-13" value="Backend" style="rounded=0;whiteSpace=wrap;html=1;" parent="1" vertex="1">
          <mxGeometry x="-145" y="-830" width="120" height="60" as="geometry" />
        </mxCell>
        <mxCell id="ezkdBNjt0_af7pjw_o3w-16" value="2. Username+password" style="text;html=1;align=center;verticalAlign=middle;resizable=0;points=[];autosize=1;strokeColor=none;fillColor=none;" parent="1" vertex="1">
          <mxGeometry x="-330" y="-870" width="150" height="30" as="geometry" />
        </mxCell>
        <mxCell id="ezkdBNjt0_af7pjw_o3w-21" style="edgeStyle=orthogonalEdgeStyle;rounded=0;orthogonalLoop=1;jettySize=auto;html=1;entryX=0.5;entryY=1;entryDx=0;entryDy=0;" parent="1" source="ezkdBNjt0_af7pjw_o3w-17" target="ezkdBNjt0_af7pjw_o3w-13" edge="1">
          <mxGeometry relative="1" as="geometry" />
        </mxCell>
        <mxCell id="ezkdBNjt0_af7pjw_o3w-17" value="Database" style="shape=cylinder3;whiteSpace=wrap;html=1;boundedLbl=1;backgroundOutline=1;size=15;" parent="1" vertex="1">
          <mxGeometry x="-115" y="-720" width="60" height="80" as="geometry" />
        </mxCell>
        <mxCell id="ezkdBNjt0_af7pjw_o3w-19" value="3. Check with database" style="text;html=1;align=center;verticalAlign=middle;resizable=0;points=[];autosize=1;strokeColor=none;fillColor=none;" parent="1" vertex="1">
          <mxGeometry x="-80" y="-762" width="150" height="30" as="geometry" />
        </mxCell>
        <mxCell id="ezkdBNjt0_af7pjw_o3w-23" value="3. Return token" style="text;html=1;align=center;verticalAlign=middle;resizable=0;points=[];autosize=1;strokeColor=none;fillColor=none;" parent="1" vertex="1">
          <mxGeometry x="-355" y="-802" width="110" height="30" as="geometry" />
        </mxCell>
        <mxCell id="ezkdBNjt0_af7pjw_o3w-25" value="After login" style="text;html=1;align=center;verticalAlign=middle;resizable=0;points=[];autosize=1;strokeColor=none;fillColor=none;" parent="1" vertex="1">
          <mxGeometry x="-125" y="-584" width="80" height="30" as="geometry" />
        </mxCell>
        <mxCell id="ezkdBNjt0_af7pjw_o3w-26" value="" style="whiteSpace=wrap;html=1;" parent="1" vertex="1">
          <mxGeometry x="-190" y="-532" width="210" height="370" as="geometry" />
        </mxCell>
        <mxCell id="ezkdBNjt0_af7pjw_o3w-27" style="edgeStyle=orthogonalEdgeStyle;rounded=0;orthogonalLoop=1;jettySize=auto;html=1;entryX=1;entryY=0.5;entryDx=0;entryDy=0;" parent="1" source="ezkdBNjt0_af7pjw_o3w-28" target="ezkdBNjt0_af7pjw_o3w-30" edge="1">
          <mxGeometry relative="1" as="geometry" />
        </mxCell>
        <mxCell id="ezkdBNjt0_af7pjw_o3w-28" value="Frontend" style="rounded=0;whiteSpace=wrap;html=1;" parent="1" vertex="1">
          <mxGeometry x="-145" y="-482" width="120" height="60" as="geometry" />
        </mxCell>
        <mxCell id="ezkdBNjt0_af7pjw_o3w-41" style="edgeStyle=orthogonalEdgeStyle;rounded=0;orthogonalLoop=1;jettySize=auto;html=1;entryX=0;entryY=0.5;entryDx=0;entryDy=0;" parent="1" source="ezkdBNjt0_af7pjw_o3w-30" target="ezkdBNjt0_af7pjw_o3w-35" edge="1">
          <mxGeometry relative="1" as="geometry">
            <Array as="points">
              <mxPoint x="-380" y="-342" />
            </Array>
          </mxGeometry>
        </mxCell>
        <mxCell id="ezkdBNjt0_af7pjw_o3w-30" value="User with token" style="rounded=0;whiteSpace=wrap;html=1;" parent="1" vertex="1">
          <mxGeometry x="-440" y="-482" width="120" height="60" as="geometry" />
        </mxCell>
        <mxCell id="ezkdBNjt0_af7pjw_o3w-31" value="Server" style="text;html=1;align=center;verticalAlign=middle;resizable=0;points=[];autosize=1;strokeColor=none;fillColor=none;" parent="1" vertex="1">
          <mxGeometry x="-200" y="-554" width="60" height="30" as="geometry" />
        </mxCell>
        <mxCell id="ezkdBNjt0_af7pjw_o3w-32" value="1. Sent to user browser" style="text;html=1;align=center;verticalAlign=middle;resizable=0;points=[];autosize=1;strokeColor=none;fillColor=none;" parent="1" vertex="1">
          <mxGeometry x="-315" y="-474" width="150" height="30" as="geometry" />
        </mxCell>
        <mxCell id="ezkdBNjt0_af7pjw_o3w-33" style="edgeStyle=orthogonalEdgeStyle;rounded=0;orthogonalLoop=1;jettySize=auto;html=1;" parent="1" source="ezkdBNjt0_af7pjw_o3w-35" target="ezkdBNjt0_af7pjw_o3w-38" edge="1">
          <mxGeometry relative="1" as="geometry" />
        </mxCell>
        <mxCell id="ezkdBNjt0_af7pjw_o3w-43" style="edgeStyle=orthogonalEdgeStyle;rounded=0;orthogonalLoop=1;jettySize=auto;html=1;entryX=0.75;entryY=1;entryDx=0;entryDy=0;" parent="1" source="ezkdBNjt0_af7pjw_o3w-35" target="ezkdBNjt0_af7pjw_o3w-30" edge="1">
          <mxGeometry relative="1" as="geometry">
            <Array as="points">
              <mxPoint x="-85" y="-390" />
              <mxPoint x="-350" y="-390" />
            </Array>
          </mxGeometry>
        </mxCell>
        <mxCell id="ezkdBNjt0_af7pjw_o3w-35" value="Backend" style="rounded=0;whiteSpace=wrap;html=1;" parent="1" vertex="1">
          <mxGeometry x="-145" y="-372" width="120" height="60" as="geometry" />
        </mxCell>
        <mxCell id="ezkdBNjt0_af7pjw_o3w-37" style="edgeStyle=orthogonalEdgeStyle;rounded=0;orthogonalLoop=1;jettySize=auto;html=1;entryX=0.5;entryY=1;entryDx=0;entryDy=0;" parent="1" source="ezkdBNjt0_af7pjw_o3w-38" target="ezkdBNjt0_af7pjw_o3w-35" edge="1">
          <mxGeometry relative="1" as="geometry" />
        </mxCell>
        <mxCell id="ezkdBNjt0_af7pjw_o3w-38" value="Database" style="shape=cylinder3;whiteSpace=wrap;html=1;boundedLbl=1;backgroundOutline=1;size=15;" parent="1" vertex="1">
          <mxGeometry x="-115" y="-262" width="60" height="80" as="geometry" />
        </mxCell>
        <mxCell id="ezkdBNjt0_af7pjw_o3w-39" value="3. Check with database" style="text;html=1;align=center;verticalAlign=middle;resizable=0;points=[];autosize=1;strokeColor=none;fillColor=none;" parent="1" vertex="1">
          <mxGeometry x="-80" y="-304" width="150" height="30" as="geometry" />
        </mxCell>
        <mxCell id="ezkdBNjt0_af7pjw_o3w-42" value="2. Request with token header" style="text;html=1;align=center;verticalAlign=middle;resizable=0;points=[];autosize=1;strokeColor=none;fillColor=none;" parent="1" vertex="1">
          <mxGeometry x="-370" y="-372" width="180" height="30" as="geometry" />
        </mxCell>
        <mxCell id="ezkdBNjt0_af7pjw_o3w-44" value="4. Provide service if token is valid" style="text;html=1;align=center;verticalAlign=middle;resizable=0;points=[];autosize=1;strokeColor=none;fillColor=none;" parent="1" vertex="1">
          <mxGeometry x="-340" y="-422" width="200" height="30" as="geometry" />
        </mxCell>
        <mxCell id="ezkdBNjt0_af7pjw_o3w-45" value="Registration" style="text;html=1;align=center;verticalAlign=middle;resizable=0;points=[];autosize=1;strokeColor=none;fillColor=none;" parent="1" vertex="1">
          <mxGeometry x="370" y="-1012" width="90" height="30" as="geometry" />
        </mxCell>
        <mxCell id="ezkdBNjt0_af7pjw_o3w-46" value="" style="whiteSpace=wrap;html=1;" parent="1" vertex="1">
          <mxGeometry x="310" y="-960" width="210" height="370" as="geometry" />
        </mxCell>
        <mxCell id="ezkdBNjt0_af7pjw_o3w-47" style="edgeStyle=orthogonalEdgeStyle;rounded=0;orthogonalLoop=1;jettySize=auto;html=1;entryX=1;entryY=0.5;entryDx=0;entryDy=0;" parent="1" source="ezkdBNjt0_af7pjw_o3w-48" target="ezkdBNjt0_af7pjw_o3w-50" edge="1">
          <mxGeometry relative="1" as="geometry" />
        </mxCell>
        <mxCell id="ezkdBNjt0_af7pjw_o3w-48" value="Frontend" style="rounded=0;whiteSpace=wrap;html=1;" parent="1" vertex="1">
          <mxGeometry x="355" y="-910" width="120" height="60" as="geometry" />
        </mxCell>
        <mxCell id="ezkdBNjt0_af7pjw_o3w-49" style="edgeStyle=orthogonalEdgeStyle;rounded=0;orthogonalLoop=1;jettySize=auto;html=1;" parent="1" source="ezkdBNjt0_af7pjw_o3w-50" target="ezkdBNjt0_af7pjw_o3w-55" edge="1">
          <mxGeometry relative="1" as="geometry">
            <Array as="points">
              <mxPoint x="267" y="-860" />
              <mxPoint x="267" y="-790" />
            </Array>
          </mxGeometry>
        </mxCell>
        <mxCell id="ezkdBNjt0_af7pjw_o3w-62" style="edgeStyle=orthogonalEdgeStyle;rounded=0;orthogonalLoop=1;jettySize=auto;html=1;entryX=0;entryY=0.75;entryDx=0;entryDy=0;" parent="1" source="ezkdBNjt0_af7pjw_o3w-50" target="ezkdBNjt0_af7pjw_o3w-55" edge="1">
          <mxGeometry relative="1" as="geometry">
            <Array as="points">
              <mxPoint x="120" y="-755" />
            </Array>
          </mxGeometry>
        </mxCell>
        <mxCell id="ezkdBNjt0_af7pjw_o3w-50" value="User" style="rounded=0;whiteSpace=wrap;html=1;" parent="1" vertex="1">
          <mxGeometry x="60" y="-910" width="120" height="60" as="geometry" />
        </mxCell>
        <mxCell id="ezkdBNjt0_af7pjw_o3w-51" value="Server" style="text;html=1;align=center;verticalAlign=middle;resizable=0;points=[];autosize=1;strokeColor=none;fillColor=none;" parent="1" vertex="1">
          <mxGeometry x="300" y="-982" width="60" height="30" as="geometry" />
        </mxCell>
        <mxCell id="ezkdBNjt0_af7pjw_o3w-52" value="1. Sent to user browser" style="text;html=1;align=center;verticalAlign=middle;resizable=0;points=[];autosize=1;strokeColor=none;fillColor=none;" parent="1" vertex="1">
          <mxGeometry x="185" y="-902" width="150" height="30" as="geometry" />
        </mxCell>
        <mxCell id="ezkdBNjt0_af7pjw_o3w-53" style="edgeStyle=orthogonalEdgeStyle;rounded=0;orthogonalLoop=1;jettySize=auto;html=1;" parent="1" source="ezkdBNjt0_af7pjw_o3w-55" target="ezkdBNjt0_af7pjw_o3w-58" edge="1">
          <mxGeometry relative="1" as="geometry" />
        </mxCell>
        <mxCell id="ezkdBNjt0_af7pjw_o3w-54" style="edgeStyle=orthogonalEdgeStyle;rounded=0;orthogonalLoop=1;jettySize=auto;html=1;" parent="1" source="ezkdBNjt0_af7pjw_o3w-55" target="ezkdBNjt0_af7pjw_o3w-50" edge="1">
          <mxGeometry relative="1" as="geometry">
            <Array as="points">
              <mxPoint x="140" y="-780" />
            </Array>
          </mxGeometry>
        </mxCell>
        <mxCell id="ezkdBNjt0_af7pjw_o3w-55" value="Backend" style="rounded=0;whiteSpace=wrap;html=1;" parent="1" vertex="1">
          <mxGeometry x="355" y="-800" width="120" height="60" as="geometry" />
        </mxCell>
        <mxCell id="ezkdBNjt0_af7pjw_o3w-56" value="2. Username+password" style="text;html=1;align=center;verticalAlign=middle;resizable=0;points=[];autosize=1;strokeColor=none;fillColor=none;" parent="1" vertex="1">
          <mxGeometry x="170" y="-840" width="150" height="30" as="geometry" />
        </mxCell>
        <mxCell id="ezkdBNjt0_af7pjw_o3w-57" style="edgeStyle=orthogonalEdgeStyle;rounded=0;orthogonalLoop=1;jettySize=auto;html=1;entryX=0.5;entryY=1;entryDx=0;entryDy=0;" parent="1" source="ezkdBNjt0_af7pjw_o3w-58" target="ezkdBNjt0_af7pjw_o3w-55" edge="1">
          <mxGeometry relative="1" as="geometry" />
        </mxCell>
        <mxCell id="ezkdBNjt0_af7pjw_o3w-58" value="Database" style="shape=cylinder3;whiteSpace=wrap;html=1;boundedLbl=1;backgroundOutline=1;size=15;" parent="1" vertex="1">
          <mxGeometry x="385" y="-690" width="60" height="80" as="geometry" />
        </mxCell>
        <mxCell id="ezkdBNjt0_af7pjw_o3w-59" value="3. Check if email ends with @huilieducaiton.cn" style="text;html=1;align=center;verticalAlign=middle;resizable=0;points=[];autosize=1;strokeColor=none;fillColor=none;" parent="1" vertex="1">
          <mxGeometry x="480" y="-785" width="270" height="30" as="geometry" />
        </mxCell>
        <mxCell id="ezkdBNjt0_af7pjw_o3w-60" value="4. If so, send verification email" style="text;html=1;align=center;verticalAlign=middle;resizable=0;points=[];autosize=1;strokeColor=none;fillColor=none;" parent="1" vertex="1">
          <mxGeometry x="130" y="-785" width="180" height="30" as="geometry" />
        </mxCell>
        <mxCell id="ezkdBNjt0_af7pjw_o3w-63" value="5. User sends the verificaiton code" style="text;html=1;align=center;verticalAlign=middle;resizable=0;points=[];autosize=1;strokeColor=none;fillColor=none;" parent="1" vertex="1">
          <mxGeometry x="115" y="-755" width="210" height="30" as="geometry" />
        </mxCell>
        <mxCell id="ezkdBNjt0_af7pjw_o3w-64" value="6. Save the user info in the database&lt;br&gt;&amp;nbsp;(password encrypted)" style="text;html=1;align=center;verticalAlign=middle;resizable=0;points=[];autosize=1;strokeColor=none;fillColor=none;" parent="1" vertex="1">
          <mxGeometry x="445" y="-700" width="220" height="40" as="geometry" />
        </mxCell>
        <mxCell id="xDk-LEnTA97XY3dkGEDP-1" value="&lt;font style=&quot;font-size: 20px;&quot;&gt;Notes&lt;/font&gt;" style="text;html=1;align=center;verticalAlign=middle;resizable=0;points=[];autosize=1;strokeColor=none;fillColor=none;" vertex="1" parent="1">
          <mxGeometry x="1276" y="-1090" width="80" height="40" as="geometry" />
        </mxCell>
      </root>
    </mxGraphModel>
  </diagram>
</mxfile>
